HIERARCHY
ROOT Hips
{
	OFFSET 0.000000 0.000000 0.000000
	CHANNELS 6 Xposition Yposition Zposition Zrotation Yrotation Xrotation 
	JOINT LHipJoint
	{
		OFFSET 0.000000 0.000000 0.000000
		CHANNELS 3 Zrotation Yrotation Xrotation
		JOINT LeftUpLeg
		{
			OFFSET 1.363060 -1.794630 0.839290
			CHANNELS 3 Zrotation Yrotation Xrotation
			JOINT LeftLeg
			{
				OFFSET 2.448110 -6.726130 0.000000
				CHANNELS 3 Zrotation Yrotation Xrotation
				JOINT LeftFoot
				{
					OFFSET 2.562200 -7.039590 0.000000
					CHANNELS 3 Zrotation Yrotation Xrotation
					JOINT LeftToeBase
					{
						OFFSET 0.157640 -0.433110 2.322550
						CHANNELS 3 Zrotation Yrotation Xrotation
						End Site
						{
							OFFSET 0.000000 0.000000 0.000000
						}
					}
				}
			}
		}
	}
	JOINT RHipJoint
	{
		OFFSET 0.000000 0.000000 0.000000
		CHANNELS 3 Zrotation Yrotation Xrotation
		JOINT RightUpLeg
		{
			OFFSET -1.305520 -1.794630 0.839290
			CHANNELS 3 Zrotation Yrotation Xrotation
			JOINT RightLeg
			{
				OFFSET -2.542530 -6.985550 0.000000
				CHANNELS 3 Zrotation Yrotation Xrotation
				JOINT RightFoot
				{
					OFFSET -2.568260 -7.056230 0.000000
					CHANNELS 3 Zrotation Yrotation Xrotation
					JOINT RightToeBase
					{
						OFFSET -0.164730 -0.452590 2.363150
						CHANNELS 3 Zrotation Yrotation Xrotation
						End Site
						{
							OFFSET 0.000000 0.000000 0.000000
						}
					}
				}
			}
		}
	}
	JOINT LowerBack
	{
		OFFSET 0.000000 0.000000 0.000000
		CHANNELS 3 Zrotation Yrotation Xrotation
		JOINT Spine
		{
			OFFSET 0.028270 2.035590 -0.193380
			CHANNELS 3 Zrotation Yrotation Xrotation
			JOINT Spine1
			{
				OFFSET 0.056720 2.048850 -0.042750
				CHANNELS 3 Zrotation Yrotation Xrotation
				JOINT Neck
				{
					OFFSET 0.000000 0.000000 0.000000
					CHANNELS 3 Zrotation Yrotation Xrotation
					JOINT Neck1
					{
						OFFSET -0.054170 1.746240 0.172020
						CHANNELS 3 Zrotation Yrotation Xrotation
						JOINT Head
						{
							OFFSET 0.104070 1.761360 -0.123970
							CHANNELS 3 Zrotation Yrotation Xrotation
							End Site
							{
								OFFSET 0.000000 0.000000 0.000000
							}
						}
					}
				}
				JOINT LeftShoulder
				{
					OFFSET 0.000000 0.000000 0.000000
					CHANNELS 3 Zrotation Yrotation Xrotation
					JOINT LeftArm
					{
						OFFSET 3.362410 1.200890 -0.311210
						CHANNELS 3 Zrotation Yrotation Xrotation
						JOINT LeftForeArm
						{
							OFFSET 4.983000 -0.000000 -0.000000
							CHANNELS 3 Zrotation Yrotation Xrotation
							JOINT LeftHand
							{
								OFFSET 3.483560 -0.000000 -0.000000
								CHANNELS 3 Zrotation Yrotation Xrotation
								JOINT LeftFingerBase
								{
									OFFSET 0.000000 0.000000 0.000000
									CHANNELS 3 Zrotation Yrotation Xrotation
									JOINT LeftHandIndex1
									{
										OFFSET 0.715260 -0.000000 -0.000000
										CHANNELS 3 Zrotation Yrotation Xrotation
										End Site
										{
											OFFSET 0.000000 0.000000 0.000000
										}
									}
								}
								JOINT LThumb
								{
									OFFSET 0.000000 0.000000 0.000000
									CHANNELS 3 Zrotation Yrotation Xrotation
									End Site
									{
										OFFSET 0.000000 0.000000 0.000000
									}
								}
							}
						}
					}
				}
				JOINT RightShoulder
				{
					OFFSET 0.000000 0.000000 0.000000
					CHANNELS 3 Zrotation Yrotation Xrotation
					JOINT RightArm
					{
						OFFSET -3.136600 1.374050 -0.404650
						CHANNELS 3 Zrotation Yrotation Xrotation
						JOINT RightForeArm
						{
							OFFSET -5.241900 -0.000000 -0.000000
							CHANNELS 3 Zrotation Yrotation Xrotation
							JOINT RightHand
							{
								OFFSET -3.444170 -0.000000 -0.000000
								CHANNELS 3 Zrotation Yrotation Xrotation
								JOINT RightFingerBase
								{
									OFFSET 0.000000 0.000000 0.000000
									CHANNELS 3 Zrotation Yrotation Xrotation
									JOINT RightHandIndex1
									{
										OFFSET -0.622530 -0.000000 -0.000000
										CHANNELS 3 Zrotation Yrotation Xrotation
										End Site
										{
											OFFSET 0.000000 0.000000 0.000000
										}
									}
								}
								JOINT RThumb
								{
									OFFSET 0.000000 0.000000 0.000000
									CHANNELS 3 Zrotation Yrotation Xrotation
									End Site
									{
										OFFSET 0.000000 0.000000 0.000000
									}
								}
							}
						}
					}
				}
			}
		}
	}
}
MOTION
Frames: 11
Frame Time: 0.033333
-1.858645 17.320772 23.612503 1.339176 3.653895 9.829736 -5.999310 8.258812 -3.640479 -17.000554 -2.777708 -6.787948 -10.916817 -9.832580 -25.924203 0.358682 10.610010 22.191736 0.000000 0.000000 0.000000 11.820512 -5.849355 -1.824733 6.284178 1.851484 -8.291685 -12.578166 -24.922502 50.429066 17.473635 -44.662479 20.702108 0.000000 0.000000 0.000000 -3.617879 0.720842 13.229570 3.082195 0.443676 -4.173665 0.331082 0.823645 -8.815537 -0.500953 0.357336 0.907188 3.228687 -0.197053 5.179811 0.000000 0.000000 0.000000 4.810614 7.943072 10.376516 -70.245242 -4.244359 22.372311 -18.144749 -78.295754 0.506704 1.432225 -15.037346 0.247159 1.478230 -15.039647 0.000000 0.000000 0.000000 0.000000 0.000000 0.000000 0.000000 -3.660330 -15.356023 1.418498 68.402566 3.608315 19.213950 170.064331 75.804868 -179.834223 -3.231814 6.994864 0.081679 -3.246659 6.990868 0.000000 0.000000 0.000000 0.000000 0.000000 0.000000 0.000000 
-1.864988 17.351736 23.817318 1.702972 3.588396 9.932173 -5.568196 8.430033 -4.011825 -17.980598 -2.753734 -6.467140 -10.681526 -9.210824 -24.034985 0.166233 9.080831 19.030941 0.000000 0.000000 0.000000 11.830925 -6.191636 -1.317797 5.957479 1.918952 -8.464863 -12.665793 -24.567492 50.049059 17.633630 -46.048256 22.053812 0.000000 0.000000 0.000000 -3.708974 0.893612 13.186183 2.948381 0.494475 -4.020002 0.046753 0.887922 -9.256051 -0.565756 0.405559 1.404331 3.322436 -0.217084 5.385897 0.000000 0.000000 0.000000 4.804403 7.850559 10.334583 -70.035461 -4.214389 23.024792 -20.346792 -77.118845 0.535673 1.069212 -15.107223 0.261843 1.110568 -15.111596 0.000000 0.000000 0.000000 0.000000 0.000000 0.000000 0.000000 -3.831338 -15.806217 0.843358 69.092214 4.031139 18.311184 168.377326 74.090608 -179.852292 -3.141699 6.212841 0.072874 -3.153415 6.209862 0.000000 0.000000 0.000000 0.000000 0.000000 0.000000 0.000000 
-1.870459 17.384701 24.019445 2.054198 3.574404 10.016588 -5.189041 8.612855 -4.378666 -18.907857 -2.757805 -6.206317 -10.419566 -8.543671 -22.028760 0.015759 7.582238 15.950497 0.000000 0.000000 0.000000 11.872336 -6.517566 -0.790927 5.561818 1.917747 -8.605766 -12.606075 -24.246133 49.564979 17.773590 -47.358840 23.231699 0.000000 0.000000 0.000000 -3.790359 1.036936 13.112508 2.848291 0.516550 -3.889349 -0.253976 0.928266 -9.544059 -0.532342 0.431251 1.723285 3.368320 -0.229231 5.517216 0.000000 0.000000 0.000000 4.791362 7.787286 10.233802 -69.820753 -4.244956 23.612759 -23.203252 -75.447947 0.567889 0.621231 -15.148209 0.278255 0.656529 -15.154870 0.000000 0.000000 0.000000 0.000000 0.000000 0.000000 0.000000 -4.125281 -16.134358 0.469038 69.832803 4.345931 17.589365 167.331318 72.989005 -179.863414 -3.050725 5.689119 0.067441 -3.060542 5.686888 0.000000 0.000000 0.000000 0.000000 0.000000 0.000000 0.000000 
-1.873847 17.419147 24.218158 2.392159 3.553869 10.095126 -4.868900 8.832086 -4.726425 -19.777333 -2.793724 -6.032133 -10.133926 -7.830324 -19.929527 -0.101197 6.146894 12.979572 0.000000 0.000000 0.000000 11.948708 -6.848072 -0.229912 5.098886 1.887707 -8.766445 -12.470909 -23.930372 49.023463 17.853875 -48.542303 24.304539 0.000000 0.000000 0.000000 -3.870874 1.163735 12.988932 2.775326 0.526227 -3.770769 -0.516115 0.958942 -9.794349 -0.469726 0.445617 1.969067 3.371204 -0.235620 5.589400 0.000000 0.000000 0.000000 4.732618 7.758423 10.127845 -69.602451 -4.312693 23.989076 -26.778151 -73.146780 0.599381 0.088528 -15.134074 0.294432 0.116485 -15.143006 0.000000 0.000000 0.000000 0.000000 0.000000 0.000000 0.000000 -4.373056 -16.414606 0.204634 70.394961 4.513376 17.075975 166.653579 72.260018 -179.871070 -2.964300 5.303148 0.063697 -2.972819 5.301491 0.000000 0.000000 0.000000 0.000000 0.000000 0.000000 0.000000 
-1.875174 17.454534 24.412740 2.713341 3.526190 10.168444 -4.612764 9.083516 -5.048134 -20.576736 -2.863720 -5.945965 -9.824450 -7.080353 -17.759505 -0.189669 4.787002 10.148969 0.000000 0.000000 0.000000 12.055797 -7.183515 0.361896 4.578843 1.836193 -8.946823 -12.264964 -23.621549 48.432933 17.878568 -49.600487 25.284967 0.000000 0.000000 0.000000 -3.945274 1.279231 12.810581 2.724747 0.528690 -3.652845 -0.734748 0.986395 -10.035520 -0.382005 0.448987 2.148792 3.328902 -0.236663 5.610354 0.000000 0.000000 0.000000 4.622404 7.764937 10.019131 -69.378693 -4.454544 23.935136 -31.105503 -69.985893 0.622983 -0.510719 -15.017228 0.306800 -0.490796 -15.028056 0.000000 0.000000 0.000000 0.000000 0.000000 0.000000 0.000000 -4.559383 -16.648475 0.041115 70.750115 4.484105 16.772343 166.301402 71.849767 -179.875769 -2.901150 5.060466 0.061394 -2.908946 5.059160 0.000000 0.000000 0.000000 0.000000 0.000000 0.000000 0.000000 
-1.874761 17.489916 24.601849 3.010823 3.405892 10.262068 -4.423604 9.377412 -5.334098 -21.293803 -2.953617 -5.958872 -9.482389 -6.310610 -15.612292 -0.256904 3.552971 7.512064 0.000000 0.000000 0.000000 12.212976 -7.488836 0.979501 3.963580 1.760844 -9.164955 -12.032861 -23.340272 47.790566 17.757296 -50.408496 26.262443 0.000000 0.000000 0.000000 -4.056923 1.346588 12.587905 2.682950 0.511035 -3.538460 -0.839795 0.986845 -10.222971 -0.339342 0.445284 2.262301 3.274219 -0.235468 5.604254 0.000000 0.000000 0.000000 4.465552 7.811852 9.974198 -69.218279 -4.557609 23.635860 -33.735160 -67.768970 0.628224 -0.845237 -14.888253 0.309773 -0.829452 -14.899796 0.000000 0.000000 0.000000 0.000000 0.000000 0.000000 0.000000 -4.554196 -16.782601 -0.001760 70.711718 4.267910 16.813967 166.339069 71.838059 -179.875542 -2.892071 5.040493 0.061510 -2.899827 5.039220 0.000000 0.000000 0.000000 0.000000 0.000000 0.000000 0.000000 
-1.872071 17.524812 24.785361 3.281307 3.180311 10.375686 -4.299171 9.709012 -5.580405 -21.920836 -3.057625 -6.062499 -9.122585 -5.531194 -13.518017 -0.305213 2.449884 5.076674 0.000000 0.000000 0.000000 12.414468 -7.759113 1.619981 3.259834 1.665979 -9.416207 -11.791067 -23.094534 47.095612 17.473094 -50.957665 27.279666 0.000000 0.000000 0.000000 -4.206770 1.361680 12.315655 2.649058 0.471354 -3.434154 -0.819108 0.958340 -10.335006 -0.349051 0.435037 2.305061 3.205251 -0.231424 5.560172 0.000000 0.000000 0.000000 4.262735 7.878727 10.004158 -69.129525 -4.539486 23.476897 -34.549964 -66.945026 0.627217 -0.937968 -14.831987 0.309381 -0.923261 -14.843658 0.000000 0.000000 0.000000 0.000000 0.000000 0.000000 0.000000 -4.338983 -16.801824 0.083856 70.252089 3.865522 17.215314 166.786435 72.245002 -179.870269 -2.941356 5.257551 0.064103 -2.949811 5.255969 0.000000 0.000000 0.000000 0.000000 0.000000 0.000000 0.000000 
-1.867556 17.558889 24.962771 3.521180 2.881383 10.492893 -4.234627 10.054665 -5.783725 -22.448246 -3.170276 -6.231168 -8.753595 -4.758207 -11.499643 -0.334889 1.471459 2.850401 0.000000 0.000000 0.000000 12.645004 -7.953049 2.245693 2.491157 1.506334 -9.619612 -11.512669 -22.909867 46.313227 17.024002 -51.270088 28.354853 0.000000 0.000000 0.000000 -4.381596 1.312233 12.009771 2.624118 0.396732 -3.345365 -0.679230 0.888888 -10.336280 -0.402886 0.417049 2.255838 3.121178 -0.223754 5.468224 0.000000 0.000000 0.000000 4.022231 7.964144 10.098864 -69.116943 -4.387508 23.585673 -33.592409 -67.644770 0.625530 -0.808112 -14.876798 0.308419 -0.791993 -14.888219 0.000000 0.000000 0.000000 0.000000 0.000000 0.000000 0.000000 -3.938555 -16.700065 0.321929 69.405921 3.320165 17.981908 167.711969 73.146192 -179.859030 -3.037257 5.730903 0.069619 -3.047288 5.728662 0.000000 0.000000 0.000000 0.000000 0.000000 0.000000 0.000000 
-1.861645 17.591794 25.134101 3.728919 2.489630 10.614354 -4.222069 10.412229 -5.943905 -22.878083 -3.281227 -6.452531 -8.381121 -4.001058 -9.590413 -0.348053 0.619904 0.829237 0.000000 0.000000 0.000000 12.901473 -8.068452 2.859650 1.660222 1.289118 -9.775549 -11.205620 -22.788027 45.442223 16.399341 -51.332765 29.512554 0.000000 0.000000 0.000000 -4.588140 1.186267 11.665194 2.613497 0.278479 -3.276664 -0.424158 0.768985 -10.185259 -0.494098 0.388812 2.084758 3.024063 -0.211405 5.313755 0.000000 0.000000 0.000000 3.741199 8.107763 10.245921 -69.179880 -4.126821 23.835057 -30.664690 -69.866888 0.617192 -0.413914 -15.000363 0.303872 -0.393092 -15.010854 0.000000 0.000000 0.000000 0.000000 0.000000 0.000000 0.000000 -3.361470 -16.467620 0.761906 68.179054 2.704327 19.161106 169.280166 74.727318 -179.839645 -3.145030 6.487704 0.079129 -3.157702 6.484505 0.000000 0.000000 0.000000 0.000000 0.000000 0.000000 0.000000 
-1.855005 17.623327 25.299496 3.898469 2.114331 10.734721 -4.250411 10.716392 -6.092097 -23.203083 -3.381624 -6.674718 -8.011455 -3.280194 -7.794688 -0.343016 -0.131441 -0.993119 0.000000 0.000000 0.000000 13.154611 -8.171243 3.432961 0.902990 1.102799 -9.915271 -10.909930 -22.644448 44.618820 15.813102 -51.444301 30.608462 0.000000 0.000000 0.000000 -4.773367 1.050090 11.348844 2.613188 0.152283 -3.229546 -0.224459 0.646108 -9.914327 -0.530978 0.354068 1.813616 2.942931 -0.196910 5.149430 0.000000 0.000000 0.000000 3.518698 8.321252 10.303574 -69.239640 -3.989657 23.867276 -28.053175 -71.653540 0.603506 -0.040554 -15.066715 0.296702 -0.015071 -15.076034 0.000000 0.000000 0.000000 0.000000 0.000000 0.000000 0.000000 -2.953793 -16.194286 1.326971 67.179970 2.187877 20.350314 171.287620 76.711470 -179.814702 -3.200220 7.370388 0.091343 -3.216213 7.366277 0.000000 0.000000 0.000000 0.000000 0.000000 0.000000 0.000000 
-1.848148 17.653287 25.458997 4.031431 1.756939 10.853254 -4.310654 10.954918 -6.233078 -23.429689 -3.459389 -6.877226 -7.647851 -2.606212 -6.141681 -0.324773 -0.783348 -2.624567 0.000000 0.000000 0.000000 13.406813 -8.254797 3.964138 0.216920 0.947086 -10.035028 -10.623670 -22.478320 43.849501 15.282459 -51.616553 31.624390 0.000000 0.000000 0.000000 -4.943540 0.902535 11.067586 2.626513 0.015800 -3.213358 -0.094673 0.518881 -9.491543 -0.500165 0.311782 1.422872 2.883600 -0.179997 4.972751 0.000000 0.000000 0.000000 3.372815 8.608775 10.257187 -69.300756 -3.976620 23.760857 -25.818110 -73.054666 0.588017 0.294743 -15.091838 0.288694 0.324391 -15.099888 0.000000 0.000000 0.000000 0.000000 0.000000 0.000000 0.000000 -2.761113 -15.870278 2.040404 66.490783 1.808385 21.492237 173.892791 79.205233 -179.782903 -3.165583 8.391181 0.106888 -3.185598 8.386412 0.000000 0.000000 0.000000 0.000000 0.000000 0.000000 0.000000 
